<mxfile host="app.diagrams.net" modified="2023-02-21T06:35:41.387Z" agent="5.0 (Windows NT 10.0; Win64; x64) AppleWebKit/537.36 (KHTML, like Gecko) Chrome/110.0.0.0 Safari/537.36" etag="9U60dTeoUtiDZM0OYBU1" version="20.8.21" type="github">
  <diagram name="페이지-1" id="lOWCldskyWNSliUIeKKC">
    <mxGraphModel dx="1434" dy="764" grid="1" gridSize="10" guides="1" tooltips="1" connect="1" arrows="1" fold="1" page="1" pageScale="1" pageWidth="827" pageHeight="1169" math="0" shadow="0">
      <root>
        <mxCell id="0" />
        <mxCell id="1" parent="0" />
        <mxCell id="BxIaYRE7VJ_8aSlg4to--14" value="Assets" style="childLayout=tableLayout;recursiveResize=0;strokeColor=#D4E1F5;fillColor=#7EA6E0;shadow=1;strokeWidth=1;gradientColor=none;" vertex="1" parent="1">
          <mxGeometry x="50" y="192.5" width="200" height="190" as="geometry" />
        </mxCell>
        <mxCell id="BxIaYRE7VJ_8aSlg4to--15" style="shape=tableRow;horizontal=0;startSize=0;swimlaneHead=0;swimlaneBody=0;top=0;left=0;bottom=0;right=0;dropTarget=0;collapsible=0;recursiveResize=0;expand=0;fontStyle=0;strokeColor=#D4E1F5;fillColor=#ffffff;strokeWidth=1;" vertex="1" parent="BxIaYRE7VJ_8aSlg4to--14">
          <mxGeometry width="200" height="47" as="geometry" />
        </mxCell>
        <mxCell id="BxIaYRE7VJ_8aSlg4to--16" value="번호" style="connectable=0;recursiveResize=0;strokeColor=#D4E1F5;fillColor=#7EA6E0;align=center;fontStyle=1;fontColor=#FFFFFF;html=1;strokeWidth=1;fillStyle=auto;" vertex="1" parent="BxIaYRE7VJ_8aSlg4to--15">
          <mxGeometry width="99" height="47" as="geometry">
            <mxRectangle width="99" height="47" as="alternateBounds" />
          </mxGeometry>
        </mxCell>
        <mxCell id="BxIaYRE7VJ_8aSlg4to--17" value="학생" style="connectable=0;recursiveResize=0;strokeColor=#D4E1F5;fillColor=#7EA6E0;align=center;fontStyle=1;fontColor=#FFFFFF;html=1;strokeWidth=1;" vertex="1" parent="BxIaYRE7VJ_8aSlg4to--15">
          <mxGeometry x="99" width="101" height="47" as="geometry">
            <mxRectangle width="101" height="47" as="alternateBounds" />
          </mxGeometry>
        </mxCell>
        <mxCell id="BxIaYRE7VJ_8aSlg4to--18" value="" style="shape=tableRow;horizontal=0;startSize=0;swimlaneHead=0;swimlaneBody=0;top=0;left=0;bottom=0;right=0;dropTarget=0;collapsible=0;recursiveResize=0;expand=0;fontStyle=0;strokeColor=#D4E1F5;fillColor=#ffffff;strokeWidth=1;" vertex="1" parent="BxIaYRE7VJ_8aSlg4to--14">
          <mxGeometry y="47" width="200" height="52" as="geometry" />
        </mxCell>
        <mxCell id="BxIaYRE7VJ_8aSlg4to--19" value="01" style="connectable=0;recursiveResize=0;strokeColor=#D4E1F5;fillColor=inherit;align=center;whiteSpace=wrap;html=1;strokeWidth=1;" vertex="1" parent="BxIaYRE7VJ_8aSlg4to--18">
          <mxGeometry width="99" height="52" as="geometry">
            <mxRectangle width="99" height="52" as="alternateBounds" />
          </mxGeometry>
        </mxCell>
        <mxCell id="BxIaYRE7VJ_8aSlg4to--20" value="홍순혁" style="connectable=0;recursiveResize=0;strokeColor=#D4E1F5;fillColor=inherit;align=center;whiteSpace=wrap;html=1;strokeWidth=1;" vertex="1" parent="BxIaYRE7VJ_8aSlg4to--18">
          <mxGeometry x="99" width="101" height="52" as="geometry">
            <mxRectangle width="101" height="52" as="alternateBounds" />
          </mxGeometry>
        </mxCell>
        <mxCell id="BxIaYRE7VJ_8aSlg4to--21" value="" style="shape=tableRow;horizontal=0;startSize=0;swimlaneHead=0;swimlaneBody=0;top=0;left=0;bottom=0;right=0;dropTarget=0;collapsible=0;recursiveResize=0;expand=0;fontStyle=1;strokeColor=#D4E1F5;fillColor=#EAF2D3;strokeWidth=1;" vertex="1" parent="BxIaYRE7VJ_8aSlg4to--14">
          <mxGeometry y="99" width="200" height="44" as="geometry" />
        </mxCell>
        <mxCell id="BxIaYRE7VJ_8aSlg4to--22" value="02" style="connectable=0;recursiveResize=0;strokeColor=#D4E1F5;fillColor=#dae8fc;whiteSpace=wrap;html=1;strokeWidth=1;" vertex="1" parent="BxIaYRE7VJ_8aSlg4to--21">
          <mxGeometry width="99" height="44" as="geometry">
            <mxRectangle width="99" height="44" as="alternateBounds" />
          </mxGeometry>
        </mxCell>
        <mxCell id="BxIaYRE7VJ_8aSlg4to--23" value="이종성" style="connectable=0;recursiveResize=0;strokeColor=#D4E1F5;fillColor=#dae8fc;whiteSpace=wrap;html=1;strokeWidth=1;" vertex="1" parent="BxIaYRE7VJ_8aSlg4to--21">
          <mxGeometry x="99" width="101" height="44" as="geometry">
            <mxRectangle width="101" height="44" as="alternateBounds" />
          </mxGeometry>
        </mxCell>
        <mxCell id="BxIaYRE7VJ_8aSlg4to--24" value="" style="shape=tableRow;horizontal=0;startSize=0;swimlaneHead=0;swimlaneBody=0;top=0;left=0;bottom=0;right=0;dropTarget=0;collapsible=0;recursiveResize=0;expand=0;fontStyle=0;strokeColor=#D4E1F5;fillColor=#ffffff;strokeWidth=1;" vertex="1" parent="BxIaYRE7VJ_8aSlg4to--14">
          <mxGeometry y="143" width="200" height="47" as="geometry" />
        </mxCell>
        <mxCell id="BxIaYRE7VJ_8aSlg4to--25" value="03" style="connectable=0;recursiveResize=0;strokeColor=#D4E1F5;fillColor=inherit;fontStyle=0;align=center;whiteSpace=wrap;html=1;strokeWidth=1;" vertex="1" parent="BxIaYRE7VJ_8aSlg4to--24">
          <mxGeometry width="99" height="47" as="geometry">
            <mxRectangle width="99" height="47" as="alternateBounds" />
          </mxGeometry>
        </mxCell>
        <mxCell id="BxIaYRE7VJ_8aSlg4to--26" value="최현서" style="connectable=0;recursiveResize=0;strokeColor=#D4E1F5;fillColor=inherit;fontStyle=0;align=center;whiteSpace=wrap;html=1;strokeWidth=1;" vertex="1" parent="BxIaYRE7VJ_8aSlg4to--24">
          <mxGeometry x="99" width="101" height="47" as="geometry">
            <mxRectangle width="101" height="47" as="alternateBounds" />
          </mxGeometry>
        </mxCell>
        <mxCell id="BxIaYRE7VJ_8aSlg4to--27" value="g" style="childLayout=tableLayout;recursiveResize=0;strokeColor=#D4E1F5;fillColor=#7EA6E0;shadow=1;strokeWidth=1;gradientColor=none;" vertex="1" parent="1">
          <mxGeometry x="720" y="192.5" width="320" height="331" as="geometry" />
        </mxCell>
        <mxCell id="BxIaYRE7VJ_8aSlg4to--28" style="shape=tableRow;horizontal=0;startSize=0;swimlaneHead=0;swimlaneBody=0;top=0;left=0;bottom=0;right=0;dropTarget=0;collapsible=0;recursiveResize=0;expand=0;fontStyle=0;strokeColor=#D4E1F5;fillColor=#ffffff;strokeWidth=1;" vertex="1" parent="BxIaYRE7VJ_8aSlg4to--27">
          <mxGeometry width="320" height="47" as="geometry" />
        </mxCell>
        <mxCell id="BxIaYRE7VJ_8aSlg4to--29" value="전공번호" style="connectable=0;recursiveResize=0;strokeColor=#D4E1F5;fillColor=#7EA6E0;align=center;fontStyle=1;fontColor=#FFFFFF;html=1;strokeWidth=1;fillStyle=auto;" vertex="1" parent="BxIaYRE7VJ_8aSlg4to--28">
          <mxGeometry width="99" height="47" as="geometry">
            <mxRectangle width="99" height="47" as="alternateBounds" />
          </mxGeometry>
        </mxCell>
        <mxCell id="BxIaYRE7VJ_8aSlg4to--30" value="교수" style="connectable=0;recursiveResize=0;strokeColor=#D4E1F5;fillColor=#7EA6E0;align=center;fontStyle=1;fontColor=#FFFFFF;html=1;strokeWidth=1;" vertex="1" parent="BxIaYRE7VJ_8aSlg4to--28">
          <mxGeometry x="99" width="101" height="47" as="geometry">
            <mxRectangle width="101" height="47" as="alternateBounds" />
          </mxGeometry>
        </mxCell>
        <mxCell id="BxIaYRE7VJ_8aSlg4to--49" value="전공" style="connectable=0;recursiveResize=0;strokeColor=#D4E1F5;fillColor=#7EA6E0;align=center;fontStyle=1;fontColor=#FFFFFF;html=1;strokeWidth=1;" vertex="1" parent="BxIaYRE7VJ_8aSlg4to--28">
          <mxGeometry x="200" width="120" height="47" as="geometry">
            <mxRectangle width="120" height="47" as="alternateBounds" />
          </mxGeometry>
        </mxCell>
        <mxCell id="BxIaYRE7VJ_8aSlg4to--31" value="" style="shape=tableRow;horizontal=0;startSize=0;swimlaneHead=0;swimlaneBody=0;top=0;left=0;bottom=0;right=0;dropTarget=0;collapsible=0;recursiveResize=0;expand=0;fontStyle=0;strokeColor=#D4E1F5;fillColor=#ffffff;strokeWidth=1;" vertex="1" parent="BxIaYRE7VJ_8aSlg4to--27">
          <mxGeometry y="47" width="320" height="52" as="geometry" />
        </mxCell>
        <mxCell id="BxIaYRE7VJ_8aSlg4to--32" value="31024&amp;nbsp;" style="connectable=0;recursiveResize=0;strokeColor=#D4E1F5;fillColor=inherit;align=center;whiteSpace=wrap;html=1;strokeWidth=1;" vertex="1" parent="BxIaYRE7VJ_8aSlg4to--31">
          <mxGeometry width="99" height="52" as="geometry">
            <mxRectangle width="99" height="52" as="alternateBounds" />
          </mxGeometry>
        </mxCell>
        <mxCell id="BxIaYRE7VJ_8aSlg4to--33" value="김기현" style="connectable=0;recursiveResize=0;strokeColor=#D4E1F5;fillColor=inherit;align=center;whiteSpace=wrap;html=1;strokeWidth=1;" vertex="1" parent="BxIaYRE7VJ_8aSlg4to--31">
          <mxGeometry x="99" width="101" height="52" as="geometry">
            <mxRectangle width="101" height="52" as="alternateBounds" />
          </mxGeometry>
        </mxCell>
        <mxCell id="BxIaYRE7VJ_8aSlg4to--50" value="제어공학" style="connectable=0;recursiveResize=0;strokeColor=#D4E1F5;fillColor=inherit;align=center;whiteSpace=wrap;html=1;strokeWidth=1;" vertex="1" parent="BxIaYRE7VJ_8aSlg4to--31">
          <mxGeometry x="200" width="120" height="52" as="geometry">
            <mxRectangle width="120" height="52" as="alternateBounds" />
          </mxGeometry>
        </mxCell>
        <mxCell id="BxIaYRE7VJ_8aSlg4to--34" value="" style="shape=tableRow;horizontal=0;startSize=0;swimlaneHead=0;swimlaneBody=0;top=0;left=0;bottom=0;right=0;dropTarget=0;collapsible=0;recursiveResize=0;expand=0;fontStyle=1;strokeColor=#D4E1F5;fillColor=#EAF2D3;strokeWidth=1;" vertex="1" parent="BxIaYRE7VJ_8aSlg4to--27">
          <mxGeometry y="99" width="320" height="44" as="geometry" />
        </mxCell>
        <mxCell id="BxIaYRE7VJ_8aSlg4to--35" value="13003" style="connectable=0;recursiveResize=0;strokeColor=#D4E1F5;fillColor=#dae8fc;whiteSpace=wrap;html=1;strokeWidth=1;" vertex="1" parent="BxIaYRE7VJ_8aSlg4to--34">
          <mxGeometry width="99" height="44" as="geometry">
            <mxRectangle width="99" height="44" as="alternateBounds" />
          </mxGeometry>
        </mxCell>
        <mxCell id="BxIaYRE7VJ_8aSlg4to--36" value="주형길" style="connectable=0;recursiveResize=0;strokeColor=#D4E1F5;fillColor=#dae8fc;whiteSpace=wrap;html=1;strokeWidth=1;" vertex="1" parent="BxIaYRE7VJ_8aSlg4to--34">
          <mxGeometry x="99" width="101" height="44" as="geometry">
            <mxRectangle width="101" height="44" as="alternateBounds" />
          </mxGeometry>
        </mxCell>
        <mxCell id="BxIaYRE7VJ_8aSlg4to--51" value="전기회로" style="connectable=0;recursiveResize=0;strokeColor=#D4E1F5;fillColor=#dae8fc;whiteSpace=wrap;html=1;strokeWidth=1;" vertex="1" parent="BxIaYRE7VJ_8aSlg4to--34">
          <mxGeometry x="200" width="120" height="44" as="geometry">
            <mxRectangle width="120" height="44" as="alternateBounds" />
          </mxGeometry>
        </mxCell>
        <mxCell id="BxIaYRE7VJ_8aSlg4to--37" value="" style="shape=tableRow;horizontal=0;startSize=0;swimlaneHead=0;swimlaneBody=0;top=0;left=0;bottom=0;right=0;dropTarget=0;collapsible=0;recursiveResize=0;expand=0;fontStyle=0;strokeColor=#D4E1F5;fillColor=#ffffff;strokeWidth=1;" vertex="1" parent="BxIaYRE7VJ_8aSlg4to--27">
          <mxGeometry y="143" width="320" height="47" as="geometry" />
        </mxCell>
        <mxCell id="BxIaYRE7VJ_8aSlg4to--38" value="23023" style="connectable=0;recursiveResize=0;strokeColor=#D4E1F5;fillColor=inherit;fontStyle=0;align=center;whiteSpace=wrap;html=1;strokeWidth=1;" vertex="1" parent="BxIaYRE7VJ_8aSlg4to--37">
          <mxGeometry width="99" height="47" as="geometry">
            <mxRectangle width="99" height="47" as="alternateBounds" />
          </mxGeometry>
        </mxCell>
        <mxCell id="BxIaYRE7VJ_8aSlg4to--39" value="이양희" style="connectable=0;recursiveResize=0;strokeColor=#D4E1F5;fillColor=inherit;fontStyle=0;align=center;whiteSpace=wrap;html=1;strokeWidth=1;" vertex="1" parent="BxIaYRE7VJ_8aSlg4to--37">
          <mxGeometry x="99" width="101" height="47" as="geometry">
            <mxRectangle width="101" height="47" as="alternateBounds" />
          </mxGeometry>
        </mxCell>
        <mxCell id="BxIaYRE7VJ_8aSlg4to--52" value="신호및시스템" style="connectable=0;recursiveResize=0;strokeColor=#D4E1F5;fillColor=inherit;fontStyle=0;align=center;whiteSpace=wrap;html=1;strokeWidth=1;" vertex="1" parent="BxIaYRE7VJ_8aSlg4to--37">
          <mxGeometry x="200" width="120" height="47" as="geometry">
            <mxRectangle width="120" height="47" as="alternateBounds" />
          </mxGeometry>
        </mxCell>
        <mxCell id="BxIaYRE7VJ_8aSlg4to--40" style="shape=tableRow;horizontal=0;startSize=0;swimlaneHead=0;swimlaneBody=0;top=0;left=0;bottom=0;right=0;dropTarget=0;collapsible=0;recursiveResize=0;expand=0;fontStyle=0;strokeColor=#6c8ebf;fillColor=#dae8fc;strokeWidth=1;" vertex="1" parent="BxIaYRE7VJ_8aSlg4to--27">
          <mxGeometry y="190" width="320" height="47" as="geometry" />
        </mxCell>
        <mxCell id="BxIaYRE7VJ_8aSlg4to--41" value="15001" style="connectable=0;recursiveResize=0;strokeColor=#D4E1F5;fillColor=inherit;fontStyle=0;align=center;whiteSpace=wrap;html=1;strokeWidth=1;" vertex="1" parent="BxIaYRE7VJ_8aSlg4to--40">
          <mxGeometry width="99" height="47" as="geometry">
            <mxRectangle width="99" height="47" as="alternateBounds" />
          </mxGeometry>
        </mxCell>
        <mxCell id="BxIaYRE7VJ_8aSlg4to--42" value="백민자" style="connectable=0;recursiveResize=0;strokeColor=#D4E1F5;fillColor=inherit;fontStyle=0;align=center;whiteSpace=wrap;html=1;strokeWidth=1;" vertex="1" parent="BxIaYRE7VJ_8aSlg4to--40">
          <mxGeometry x="99" width="101" height="47" as="geometry">
            <mxRectangle width="101" height="47" as="alternateBounds" />
          </mxGeometry>
        </mxCell>
        <mxCell id="BxIaYRE7VJ_8aSlg4to--53" value="현대예술의이해" style="connectable=0;recursiveResize=0;strokeColor=#D4E1F5;fillColor=inherit;fontStyle=0;align=center;whiteSpace=wrap;html=1;strokeWidth=1;" vertex="1" parent="BxIaYRE7VJ_8aSlg4to--40">
          <mxGeometry x="200" width="120" height="47" as="geometry">
            <mxRectangle width="120" height="47" as="alternateBounds" />
          </mxGeometry>
        </mxCell>
        <mxCell id="BxIaYRE7VJ_8aSlg4to--43" style="shape=tableRow;horizontal=0;startSize=0;swimlaneHead=0;swimlaneBody=0;top=0;left=0;bottom=0;right=0;dropTarget=0;collapsible=0;recursiveResize=0;expand=0;fontStyle=0;strokeColor=#D4E1F5;fillColor=#ffffff;strokeWidth=1;" vertex="1" parent="BxIaYRE7VJ_8aSlg4to--27">
          <mxGeometry y="237" width="320" height="47" as="geometry" />
        </mxCell>
        <mxCell id="BxIaYRE7VJ_8aSlg4to--44" value="12061" style="connectable=0;recursiveResize=0;strokeColor=#D4E1F5;fillColor=inherit;fontStyle=0;align=center;whiteSpace=wrap;html=1;strokeWidth=1;" vertex="1" parent="BxIaYRE7VJ_8aSlg4to--43">
          <mxGeometry width="99" height="47" as="geometry">
            <mxRectangle width="99" height="47" as="alternateBounds" />
          </mxGeometry>
        </mxCell>
        <mxCell id="BxIaYRE7VJ_8aSlg4to--45" value="김미숙" style="connectable=0;recursiveResize=0;strokeColor=#D4E1F5;fillColor=inherit;fontStyle=0;align=center;whiteSpace=wrap;html=1;strokeWidth=1;" vertex="1" parent="BxIaYRE7VJ_8aSlg4to--43">
          <mxGeometry x="99" width="101" height="47" as="geometry">
            <mxRectangle width="101" height="47" as="alternateBounds" />
          </mxGeometry>
        </mxCell>
        <mxCell id="BxIaYRE7VJ_8aSlg4to--54" value="발표와토론" style="connectable=0;recursiveResize=0;strokeColor=#D4E1F5;fillColor=inherit;fontStyle=0;align=center;whiteSpace=wrap;html=1;strokeWidth=1;" vertex="1" parent="BxIaYRE7VJ_8aSlg4to--43">
          <mxGeometry x="200" width="120" height="47" as="geometry">
            <mxRectangle width="120" height="47" as="alternateBounds" />
          </mxGeometry>
        </mxCell>
        <mxCell id="BxIaYRE7VJ_8aSlg4to--46" style="shape=tableRow;horizontal=0;startSize=0;swimlaneHead=0;swimlaneBody=0;top=0;left=0;bottom=0;right=0;dropTarget=0;collapsible=0;recursiveResize=0;expand=0;fontStyle=0;strokeColor=#6c8ebf;fillColor=#dae8fc;strokeWidth=1;" vertex="1" parent="BxIaYRE7VJ_8aSlg4to--27">
          <mxGeometry y="284" width="320" height="47" as="geometry" />
        </mxCell>
        <mxCell id="BxIaYRE7VJ_8aSlg4to--47" value="15007" style="connectable=0;recursiveResize=0;strokeColor=#D4E1F5;fillColor=inherit;fontStyle=0;align=center;whiteSpace=wrap;html=1;strokeWidth=1;" vertex="1" parent="BxIaYRE7VJ_8aSlg4to--46">
          <mxGeometry width="99" height="47" as="geometry">
            <mxRectangle width="99" height="47" as="alternateBounds" />
          </mxGeometry>
        </mxCell>
        <mxCell id="BxIaYRE7VJ_8aSlg4to--48" value="김수진" style="connectable=0;recursiveResize=0;strokeColor=#D4E1F5;fillColor=inherit;fontStyle=0;align=center;whiteSpace=wrap;html=1;strokeWidth=1;" vertex="1" parent="BxIaYRE7VJ_8aSlg4to--46">
          <mxGeometry x="99" width="101" height="47" as="geometry">
            <mxRectangle width="101" height="47" as="alternateBounds" />
          </mxGeometry>
        </mxCell>
        <mxCell id="BxIaYRE7VJ_8aSlg4to--55" value="패션과이미지코드" style="connectable=0;recursiveResize=0;strokeColor=#D4E1F5;fillColor=inherit;fontStyle=0;align=center;whiteSpace=wrap;html=1;strokeWidth=1;" vertex="1" parent="BxIaYRE7VJ_8aSlg4to--46">
          <mxGeometry x="200" width="120" height="47" as="geometry">
            <mxRectangle width="120" height="47" as="alternateBounds" />
          </mxGeometry>
        </mxCell>
        <mxCell id="BxIaYRE7VJ_8aSlg4to--58" value="Assets" style="childLayout=tableLayout;recursiveResize=0;strokeColor=#D4E1F5;fillColor=#7EA6E0;shadow=1;strokeWidth=1;gradientColor=none;" vertex="1" parent="1">
          <mxGeometry x="50" y="440" width="200" height="151" as="geometry" />
        </mxCell>
        <mxCell id="BxIaYRE7VJ_8aSlg4to--59" style="shape=tableRow;horizontal=0;startSize=0;swimlaneHead=0;swimlaneBody=0;top=0;left=0;bottom=0;right=0;dropTarget=0;collapsible=0;recursiveResize=0;expand=0;fontStyle=0;strokeColor=#D4E1F5;fillColor=#ffffff;strokeWidth=1;" vertex="1" parent="BxIaYRE7VJ_8aSlg4to--58">
          <mxGeometry width="200" height="47" as="geometry" />
        </mxCell>
        <mxCell id="BxIaYRE7VJ_8aSlg4to--60" value="코드" style="connectable=0;recursiveResize=0;strokeColor=#D4E1F5;fillColor=#7EA6E0;align=center;fontStyle=1;fontColor=#FFFFFF;html=1;strokeWidth=1;fillStyle=auto;" vertex="1" parent="BxIaYRE7VJ_8aSlg4to--59">
          <mxGeometry width="100" height="47" as="geometry">
            <mxRectangle width="100" height="47" as="alternateBounds" />
          </mxGeometry>
        </mxCell>
        <mxCell id="BxIaYRE7VJ_8aSlg4to--61" value="수업" style="connectable=0;recursiveResize=0;strokeColor=#D4E1F5;fillColor=#7EA6E0;align=center;fontStyle=1;fontColor=#FFFFFF;html=1;strokeWidth=1;" vertex="1" parent="BxIaYRE7VJ_8aSlg4to--59">
          <mxGeometry x="100" width="100" height="47" as="geometry">
            <mxRectangle width="100" height="47" as="alternateBounds" />
          </mxGeometry>
        </mxCell>
        <mxCell id="BxIaYRE7VJ_8aSlg4to--62" value="" style="shape=tableRow;horizontal=0;startSize=0;swimlaneHead=0;swimlaneBody=0;top=0;left=0;bottom=0;right=0;dropTarget=0;collapsible=0;recursiveResize=0;expand=0;fontStyle=0;strokeColor=#D4E1F5;fillColor=#ffffff;strokeWidth=1;" vertex="1" parent="BxIaYRE7VJ_8aSlg4to--58">
          <mxGeometry y="47" width="200" height="52" as="geometry" />
        </mxCell>
        <mxCell id="BxIaYRE7VJ_8aSlg4to--63" value="AAE" style="connectable=0;recursiveResize=0;strokeColor=#D4E1F5;fillColor=inherit;align=center;whiteSpace=wrap;html=1;strokeWidth=1;" vertex="1" parent="BxIaYRE7VJ_8aSlg4to--62">
          <mxGeometry width="100" height="52" as="geometry">
            <mxRectangle width="100" height="52" as="alternateBounds" />
          </mxGeometry>
        </mxCell>
        <mxCell id="BxIaYRE7VJ_8aSlg4to--64" value="전공" style="connectable=0;recursiveResize=0;strokeColor=#D4E1F5;fillColor=inherit;align=center;whiteSpace=wrap;html=1;strokeWidth=1;" vertex="1" parent="BxIaYRE7VJ_8aSlg4to--62">
          <mxGeometry x="100" width="100" height="52" as="geometry">
            <mxRectangle width="100" height="52" as="alternateBounds" />
          </mxGeometry>
        </mxCell>
        <mxCell id="BxIaYRE7VJ_8aSlg4to--117" style="shape=tableRow;horizontal=0;startSize=0;swimlaneHead=0;swimlaneBody=0;top=0;left=0;bottom=0;right=0;dropTarget=0;collapsible=0;recursiveResize=0;expand=0;fontStyle=0;strokeColor=#6c8ebf;fillColor=#dae8fc;strokeWidth=1;" vertex="1" parent="BxIaYRE7VJ_8aSlg4to--58">
          <mxGeometry y="99" width="200" height="52" as="geometry" />
        </mxCell>
        <mxCell id="BxIaYRE7VJ_8aSlg4to--118" value="AAK" style="connectable=0;recursiveResize=0;strokeColor=#D4E1F5;fillColor=inherit;align=center;whiteSpace=wrap;html=1;strokeWidth=1;" vertex="1" parent="BxIaYRE7VJ_8aSlg4to--117">
          <mxGeometry width="100" height="52" as="geometry">
            <mxRectangle width="100" height="52" as="alternateBounds" />
          </mxGeometry>
        </mxCell>
        <mxCell id="BxIaYRE7VJ_8aSlg4to--119" value="교양" style="connectable=0;recursiveResize=0;strokeColor=#D4E1F5;fillColor=inherit;align=center;whiteSpace=wrap;html=1;strokeWidth=1;" vertex="1" parent="BxIaYRE7VJ_8aSlg4to--117">
          <mxGeometry x="100" width="100" height="52" as="geometry">
            <mxRectangle width="100" height="52" as="alternateBounds" />
          </mxGeometry>
        </mxCell>
        <mxCell id="BxIaYRE7VJ_8aSlg4to--71" value="g" style="childLayout=tableLayout;recursiveResize=0;strokeColor=#D4E1F5;fillColor=#7EA6E0;shadow=1;strokeWidth=1;gradientColor=none;" vertex="1" parent="1">
          <mxGeometry x="330" y="192.5" width="297" height="529" as="geometry" />
        </mxCell>
        <mxCell id="BxIaYRE7VJ_8aSlg4to--72" style="shape=tableRow;horizontal=0;startSize=0;swimlaneHead=0;swimlaneBody=0;top=0;left=0;bottom=0;right=0;dropTarget=0;collapsible=0;recursiveResize=0;expand=0;fontStyle=0;strokeColor=#D4E1F5;fillColor=#ffffff;strokeWidth=1;" vertex="1" parent="BxIaYRE7VJ_8aSlg4to--71">
          <mxGeometry width="297" height="47" as="geometry" />
        </mxCell>
        <mxCell id="BxIaYRE7VJ_8aSlg4to--130" value="학생" style="connectable=0;recursiveResize=0;strokeColor=#D4E1F5;fillColor=#7EA6E0;align=center;fontStyle=1;fontColor=#FFFFFF;html=1;strokeWidth=1;fillStyle=auto;" vertex="1" parent="BxIaYRE7VJ_8aSlg4to--72">
          <mxGeometry width="99" height="47" as="geometry">
            <mxRectangle width="99" height="47" as="alternateBounds" />
          </mxGeometry>
        </mxCell>
        <mxCell id="BxIaYRE7VJ_8aSlg4to--100" value="코드" style="connectable=0;recursiveResize=0;strokeColor=#D4E1F5;fillColor=#7EA6E0;align=center;fontStyle=1;fontColor=#FFFFFF;html=1;strokeWidth=1;fillStyle=auto;" vertex="1" parent="BxIaYRE7VJ_8aSlg4to--72">
          <mxGeometry x="99" width="99" height="47" as="geometry">
            <mxRectangle width="99" height="47" as="alternateBounds" />
          </mxGeometry>
        </mxCell>
        <mxCell id="BxIaYRE7VJ_8aSlg4to--73" value="전공번호" style="connectable=0;recursiveResize=0;strokeColor=#D4E1F5;fillColor=#7EA6E0;align=center;fontStyle=1;fontColor=#FFFFFF;html=1;strokeWidth=1;fillStyle=auto;" vertex="1" parent="BxIaYRE7VJ_8aSlg4to--72">
          <mxGeometry x="198" width="99" height="47" as="geometry">
            <mxRectangle width="99" height="47" as="alternateBounds" />
          </mxGeometry>
        </mxCell>
        <mxCell id="BxIaYRE7VJ_8aSlg4to--76" value="" style="shape=tableRow;horizontal=0;startSize=0;swimlaneHead=0;swimlaneBody=0;top=0;left=0;bottom=0;right=0;dropTarget=0;collapsible=0;recursiveResize=0;expand=0;fontStyle=0;strokeColor=#D4E1F5;fillColor=#ffffff;strokeWidth=1;" vertex="1" parent="BxIaYRE7VJ_8aSlg4to--71">
          <mxGeometry y="47" width="297" height="52" as="geometry" />
        </mxCell>
        <mxCell id="BxIaYRE7VJ_8aSlg4to--131" value="1" style="connectable=0;recursiveResize=0;strokeColor=#D4E1F5;fillColor=inherit;align=center;whiteSpace=wrap;html=1;strokeWidth=1;" vertex="1" parent="BxIaYRE7VJ_8aSlg4to--76">
          <mxGeometry width="99" height="52" as="geometry">
            <mxRectangle width="99" height="52" as="alternateBounds" />
          </mxGeometry>
        </mxCell>
        <mxCell id="BxIaYRE7VJ_8aSlg4to--101" value="AAE" style="connectable=0;recursiveResize=0;strokeColor=#D4E1F5;fillColor=inherit;align=center;whiteSpace=wrap;html=1;strokeWidth=1;" vertex="1" parent="BxIaYRE7VJ_8aSlg4to--76">
          <mxGeometry x="99" width="99" height="52" as="geometry">
            <mxRectangle width="99" height="52" as="alternateBounds" />
          </mxGeometry>
        </mxCell>
        <mxCell id="BxIaYRE7VJ_8aSlg4to--77" value="31024&amp;nbsp;" style="connectable=0;recursiveResize=0;strokeColor=#D4E1F5;fillColor=inherit;align=center;whiteSpace=wrap;html=1;strokeWidth=1;" vertex="1" parent="BxIaYRE7VJ_8aSlg4to--76">
          <mxGeometry x="198" width="99" height="52" as="geometry">
            <mxRectangle width="99" height="52" as="alternateBounds" />
          </mxGeometry>
        </mxCell>
        <mxCell id="BxIaYRE7VJ_8aSlg4to--137" value="" style="shape=tableRow;horizontal=0;startSize=0;swimlaneHead=0;swimlaneBody=0;top=0;left=0;bottom=0;right=0;dropTarget=0;collapsible=0;recursiveResize=0;expand=0;fontStyle=0;strokeColor=#6c8ebf;fillColor=#dae8fc;strokeWidth=1;" vertex="1" parent="BxIaYRE7VJ_8aSlg4to--71">
          <mxGeometry y="99" width="297" height="52" as="geometry" />
        </mxCell>
        <mxCell id="BxIaYRE7VJ_8aSlg4to--138" value="2" style="connectable=0;recursiveResize=0;strokeColor=#D4E1F5;fillColor=inherit;align=center;whiteSpace=wrap;html=1;strokeWidth=1;" vertex="1" parent="BxIaYRE7VJ_8aSlg4to--137">
          <mxGeometry width="99" height="52" as="geometry">
            <mxRectangle width="99" height="52" as="alternateBounds" />
          </mxGeometry>
        </mxCell>
        <mxCell id="BxIaYRE7VJ_8aSlg4to--139" value="AAE" style="connectable=0;recursiveResize=0;strokeColor=#D4E1F5;fillColor=inherit;align=center;whiteSpace=wrap;html=1;strokeWidth=1;" vertex="1" parent="BxIaYRE7VJ_8aSlg4to--137">
          <mxGeometry x="99" width="99" height="52" as="geometry">
            <mxRectangle width="99" height="52" as="alternateBounds" />
          </mxGeometry>
        </mxCell>
        <mxCell id="BxIaYRE7VJ_8aSlg4to--140" value="31024&amp;nbsp;" style="connectable=0;recursiveResize=0;strokeColor=#D4E1F5;fillColor=inherit;align=center;whiteSpace=wrap;html=1;strokeWidth=1;" vertex="1" parent="BxIaYRE7VJ_8aSlg4to--137">
          <mxGeometry x="198" width="99" height="52" as="geometry">
            <mxRectangle width="99" height="52" as="alternateBounds" />
          </mxGeometry>
        </mxCell>
        <mxCell id="BxIaYRE7VJ_8aSlg4to--143" value="" style="shape=tableRow;horizontal=0;startSize=0;swimlaneHead=0;swimlaneBody=0;top=0;left=0;bottom=0;right=0;dropTarget=0;collapsible=0;recursiveResize=0;expand=0;fontStyle=0;strokeColor=#D4E1F5;fillColor=#ffffff;strokeWidth=1;" vertex="1" parent="BxIaYRE7VJ_8aSlg4to--71">
          <mxGeometry y="151" width="297" height="52" as="geometry" />
        </mxCell>
        <mxCell id="BxIaYRE7VJ_8aSlg4to--144" value="3" style="connectable=0;recursiveResize=0;strokeColor=#D4E1F5;fillColor=inherit;align=center;whiteSpace=wrap;html=1;strokeWidth=1;" vertex="1" parent="BxIaYRE7VJ_8aSlg4to--143">
          <mxGeometry width="99" height="52" as="geometry">
            <mxRectangle width="99" height="52" as="alternateBounds" />
          </mxGeometry>
        </mxCell>
        <mxCell id="BxIaYRE7VJ_8aSlg4to--145" value="AAE" style="connectable=0;recursiveResize=0;strokeColor=#D4E1F5;fillColor=inherit;align=center;whiteSpace=wrap;html=1;strokeWidth=1;" vertex="1" parent="BxIaYRE7VJ_8aSlg4to--143">
          <mxGeometry x="99" width="99" height="52" as="geometry">
            <mxRectangle width="99" height="52" as="alternateBounds" />
          </mxGeometry>
        </mxCell>
        <mxCell id="BxIaYRE7VJ_8aSlg4to--146" value="31024&amp;nbsp;" style="connectable=0;recursiveResize=0;strokeColor=#D4E1F5;fillColor=inherit;align=center;whiteSpace=wrap;html=1;strokeWidth=1;" vertex="1" parent="BxIaYRE7VJ_8aSlg4to--143">
          <mxGeometry x="198" width="99" height="52" as="geometry">
            <mxRectangle width="99" height="52" as="alternateBounds" />
          </mxGeometry>
        </mxCell>
        <mxCell id="BxIaYRE7VJ_8aSlg4to--80" value="" style="shape=tableRow;horizontal=0;startSize=0;swimlaneHead=0;swimlaneBody=0;top=0;left=0;bottom=0;right=0;dropTarget=0;collapsible=0;recursiveResize=0;expand=0;fontStyle=1;strokeWidth=1;" vertex="1" parent="BxIaYRE7VJ_8aSlg4to--71">
          <mxGeometry y="203" width="297" height="44" as="geometry" />
        </mxCell>
        <mxCell id="BxIaYRE7VJ_8aSlg4to--132" value="1" style="connectable=0;recursiveResize=0;strokeColor=#D4E1F5;fillColor=#dae8fc;whiteSpace=wrap;html=1;strokeWidth=1;" vertex="1" parent="BxIaYRE7VJ_8aSlg4to--80">
          <mxGeometry width="99" height="44" as="geometry">
            <mxRectangle width="99" height="44" as="alternateBounds" />
          </mxGeometry>
        </mxCell>
        <mxCell id="BxIaYRE7VJ_8aSlg4to--102" value="AAE" style="connectable=0;recursiveResize=0;strokeColor=#D4E1F5;fillColor=#dae8fc;whiteSpace=wrap;html=1;strokeWidth=1;" vertex="1" parent="BxIaYRE7VJ_8aSlg4to--80">
          <mxGeometry x="99" width="99" height="44" as="geometry">
            <mxRectangle width="99" height="44" as="alternateBounds" />
          </mxGeometry>
        </mxCell>
        <mxCell id="BxIaYRE7VJ_8aSlg4to--81" value="13003" style="connectable=0;recursiveResize=0;strokeColor=#D4E1F5;fillColor=#dae8fc;whiteSpace=wrap;html=1;strokeWidth=1;" vertex="1" parent="BxIaYRE7VJ_8aSlg4to--80">
          <mxGeometry x="198" width="99" height="44" as="geometry">
            <mxRectangle width="99" height="44" as="alternateBounds" />
          </mxGeometry>
        </mxCell>
        <mxCell id="BxIaYRE7VJ_8aSlg4to--180" style="shape=tableRow;horizontal=0;startSize=0;swimlaneHead=0;swimlaneBody=0;top=0;left=0;bottom=0;right=0;dropTarget=0;collapsible=0;recursiveResize=0;expand=0;fontStyle=0;strokeColor=#D4E1F5;fillColor=#ffffff;strokeWidth=1;" vertex="1" parent="BxIaYRE7VJ_8aSlg4to--71">
          <mxGeometry y="247" width="297" height="47" as="geometry" />
        </mxCell>
        <mxCell id="BxIaYRE7VJ_8aSlg4to--181" value="2" style="connectable=0;recursiveResize=0;strokeColor=#D4E1F5;fillColor=inherit;fontStyle=0;align=center;whiteSpace=wrap;html=1;strokeWidth=1;" vertex="1" parent="BxIaYRE7VJ_8aSlg4to--180">
          <mxGeometry width="99" height="47" as="geometry">
            <mxRectangle width="99" height="47" as="alternateBounds" />
          </mxGeometry>
        </mxCell>
        <mxCell id="BxIaYRE7VJ_8aSlg4to--182" value="AAE" style="connectable=0;recursiveResize=0;strokeColor=#D4E1F5;fillColor=inherit;fontStyle=0;align=center;whiteSpace=wrap;html=1;strokeWidth=1;" vertex="1" parent="BxIaYRE7VJ_8aSlg4to--180">
          <mxGeometry x="99" width="99" height="47" as="geometry">
            <mxRectangle width="99" height="47" as="alternateBounds" />
          </mxGeometry>
        </mxCell>
        <mxCell id="BxIaYRE7VJ_8aSlg4to--183" value="13003" style="connectable=0;recursiveResize=0;strokeColor=#D4E1F5;fillColor=inherit;fontStyle=0;align=center;whiteSpace=wrap;html=1;strokeWidth=1;" vertex="1" parent="BxIaYRE7VJ_8aSlg4to--180">
          <mxGeometry x="198" width="99" height="47" as="geometry">
            <mxRectangle width="99" height="47" as="alternateBounds" />
          </mxGeometry>
        </mxCell>
        <mxCell id="BxIaYRE7VJ_8aSlg4to--84" value="" style="shape=tableRow;horizontal=0;startSize=0;swimlaneHead=0;swimlaneBody=0;top=0;left=0;bottom=0;right=0;dropTarget=0;collapsible=0;recursiveResize=0;expand=0;fontStyle=0;strokeColor=#6c8ebf;fillColor=#dae8fc;strokeWidth=1;" vertex="1" parent="BxIaYRE7VJ_8aSlg4to--71">
          <mxGeometry y="294" width="297" height="47" as="geometry" />
        </mxCell>
        <mxCell id="BxIaYRE7VJ_8aSlg4to--133" value="1" style="connectable=0;recursiveResize=0;strokeColor=#D4E1F5;fillColor=inherit;fontStyle=0;align=center;whiteSpace=wrap;html=1;strokeWidth=1;" vertex="1" parent="BxIaYRE7VJ_8aSlg4to--84">
          <mxGeometry width="99" height="47" as="geometry">
            <mxRectangle width="99" height="47" as="alternateBounds" />
          </mxGeometry>
        </mxCell>
        <mxCell id="BxIaYRE7VJ_8aSlg4to--103" value="AAE" style="connectable=0;recursiveResize=0;strokeColor=#D4E1F5;fillColor=inherit;fontStyle=0;align=center;whiteSpace=wrap;html=1;strokeWidth=1;" vertex="1" parent="BxIaYRE7VJ_8aSlg4to--84">
          <mxGeometry x="99" width="99" height="47" as="geometry">
            <mxRectangle width="99" height="47" as="alternateBounds" />
          </mxGeometry>
        </mxCell>
        <mxCell id="BxIaYRE7VJ_8aSlg4to--85" value="23023" style="connectable=0;recursiveResize=0;strokeColor=#D4E1F5;fillColor=inherit;fontStyle=0;align=center;whiteSpace=wrap;html=1;strokeWidth=1;" vertex="1" parent="BxIaYRE7VJ_8aSlg4to--84">
          <mxGeometry x="198" width="99" height="47" as="geometry">
            <mxRectangle width="99" height="47" as="alternateBounds" />
          </mxGeometry>
        </mxCell>
        <mxCell id="BxIaYRE7VJ_8aSlg4to--161" value="" style="shape=tableRow;horizontal=0;startSize=0;swimlaneHead=0;swimlaneBody=0;top=0;left=0;bottom=0;right=0;dropTarget=0;collapsible=0;recursiveResize=0;expand=0;fontStyle=0;strokeColor=#D4E1F5;fillColor=#ffffff;strokeWidth=1;" vertex="1" parent="BxIaYRE7VJ_8aSlg4to--71">
          <mxGeometry y="341" width="297" height="47" as="geometry" />
        </mxCell>
        <mxCell id="BxIaYRE7VJ_8aSlg4to--162" value="3" style="connectable=0;recursiveResize=0;strokeColor=#D4E1F5;fillColor=inherit;fontStyle=0;align=center;whiteSpace=wrap;html=1;strokeWidth=1;" vertex="1" parent="BxIaYRE7VJ_8aSlg4to--161">
          <mxGeometry width="99" height="47" as="geometry">
            <mxRectangle width="99" height="47" as="alternateBounds" />
          </mxGeometry>
        </mxCell>
        <mxCell id="BxIaYRE7VJ_8aSlg4to--163" value="AAE" style="connectable=0;recursiveResize=0;strokeColor=#D4E1F5;fillColor=inherit;fontStyle=0;align=center;whiteSpace=wrap;html=1;strokeWidth=1;" vertex="1" parent="BxIaYRE7VJ_8aSlg4to--161">
          <mxGeometry x="99" width="99" height="47" as="geometry">
            <mxRectangle width="99" height="47" as="alternateBounds" />
          </mxGeometry>
        </mxCell>
        <mxCell id="BxIaYRE7VJ_8aSlg4to--164" value="23023" style="connectable=0;recursiveResize=0;strokeColor=#D4E1F5;fillColor=inherit;fontStyle=0;align=center;whiteSpace=wrap;html=1;strokeWidth=1;" vertex="1" parent="BxIaYRE7VJ_8aSlg4to--161">
          <mxGeometry x="198" width="99" height="47" as="geometry">
            <mxRectangle width="99" height="47" as="alternateBounds" />
          </mxGeometry>
        </mxCell>
        <mxCell id="BxIaYRE7VJ_8aSlg4to--88" style="shape=tableRow;horizontal=0;startSize=0;swimlaneHead=0;swimlaneBody=0;top=0;left=0;bottom=0;right=0;dropTarget=0;collapsible=0;recursiveResize=0;expand=0;fontStyle=0;strokeColor=#6c8ebf;fillColor=#dae8fc;strokeWidth=1;" vertex="1" parent="BxIaYRE7VJ_8aSlg4to--71">
          <mxGeometry y="388" width="297" height="47" as="geometry" />
        </mxCell>
        <mxCell id="BxIaYRE7VJ_8aSlg4to--134" value="1" style="connectable=0;recursiveResize=0;strokeColor=#D4E1F5;fillColor=inherit;fontStyle=0;align=center;whiteSpace=wrap;html=1;strokeWidth=1;" vertex="1" parent="BxIaYRE7VJ_8aSlg4to--88">
          <mxGeometry width="99" height="47" as="geometry">
            <mxRectangle width="99" height="47" as="alternateBounds" />
          </mxGeometry>
        </mxCell>
        <mxCell id="BxIaYRE7VJ_8aSlg4to--104" value="AAK" style="connectable=0;recursiveResize=0;strokeColor=#D4E1F5;fillColor=inherit;fontStyle=0;align=center;whiteSpace=wrap;html=1;strokeWidth=1;" vertex="1" parent="BxIaYRE7VJ_8aSlg4to--88">
          <mxGeometry x="99" width="99" height="47" as="geometry">
            <mxRectangle width="99" height="47" as="alternateBounds" />
          </mxGeometry>
        </mxCell>
        <mxCell id="BxIaYRE7VJ_8aSlg4to--89" value="15001" style="connectable=0;recursiveResize=0;strokeColor=#D4E1F5;fillColor=inherit;fontStyle=0;align=center;whiteSpace=wrap;html=1;strokeWidth=1;" vertex="1" parent="BxIaYRE7VJ_8aSlg4to--88">
          <mxGeometry x="198" width="99" height="47" as="geometry">
            <mxRectangle width="99" height="47" as="alternateBounds" />
          </mxGeometry>
        </mxCell>
        <mxCell id="BxIaYRE7VJ_8aSlg4to--92" style="shape=tableRow;horizontal=0;startSize=0;swimlaneHead=0;swimlaneBody=0;top=0;left=0;bottom=0;right=0;dropTarget=0;collapsible=0;recursiveResize=0;expand=0;fontStyle=0;strokeColor=#D4E1F5;fillColor=#ffffff;strokeWidth=1;" vertex="1" parent="BxIaYRE7VJ_8aSlg4to--71">
          <mxGeometry y="435" width="297" height="47" as="geometry" />
        </mxCell>
        <mxCell id="BxIaYRE7VJ_8aSlg4to--135" value="3" style="connectable=0;recursiveResize=0;strokeColor=#D4E1F5;fillColor=inherit;fontStyle=0;align=center;whiteSpace=wrap;html=1;strokeWidth=1;" vertex="1" parent="BxIaYRE7VJ_8aSlg4to--92">
          <mxGeometry width="99" height="47" as="geometry">
            <mxRectangle width="99" height="47" as="alternateBounds" />
          </mxGeometry>
        </mxCell>
        <mxCell id="BxIaYRE7VJ_8aSlg4to--105" value="AAK" style="connectable=0;recursiveResize=0;strokeColor=#D4E1F5;fillColor=inherit;fontStyle=0;align=center;whiteSpace=wrap;html=1;strokeWidth=1;" vertex="1" parent="BxIaYRE7VJ_8aSlg4to--92">
          <mxGeometry x="99" width="99" height="47" as="geometry">
            <mxRectangle width="99" height="47" as="alternateBounds" />
          </mxGeometry>
        </mxCell>
        <mxCell id="BxIaYRE7VJ_8aSlg4to--93" value="12061" style="connectable=0;recursiveResize=0;strokeColor=#D4E1F5;fillColor=inherit;fontStyle=0;align=center;whiteSpace=wrap;html=1;strokeWidth=1;" vertex="1" parent="BxIaYRE7VJ_8aSlg4to--92">
          <mxGeometry x="198" width="99" height="47" as="geometry">
            <mxRectangle width="99" height="47" as="alternateBounds" />
          </mxGeometry>
        </mxCell>
        <mxCell id="BxIaYRE7VJ_8aSlg4to--96" style="shape=tableRow;horizontal=0;startSize=0;swimlaneHead=0;swimlaneBody=0;top=0;left=0;bottom=0;right=0;dropTarget=0;collapsible=0;recursiveResize=0;expand=0;fontStyle=0;strokeColor=#6c8ebf;fillColor=#dae8fc;strokeWidth=1;" vertex="1" parent="BxIaYRE7VJ_8aSlg4to--71">
          <mxGeometry y="482" width="297" height="47" as="geometry" />
        </mxCell>
        <mxCell id="BxIaYRE7VJ_8aSlg4to--136" value="2" style="connectable=0;recursiveResize=0;strokeColor=#D4E1F5;fillColor=inherit;fontStyle=0;align=center;whiteSpace=wrap;html=1;strokeWidth=1;" vertex="1" parent="BxIaYRE7VJ_8aSlg4to--96">
          <mxGeometry width="99" height="47" as="geometry">
            <mxRectangle width="99" height="47" as="alternateBounds" />
          </mxGeometry>
        </mxCell>
        <mxCell id="BxIaYRE7VJ_8aSlg4to--106" value="AAK" style="connectable=0;recursiveResize=0;strokeColor=#D4E1F5;fillColor=inherit;fontStyle=0;align=center;whiteSpace=wrap;html=1;strokeWidth=1;" vertex="1" parent="BxIaYRE7VJ_8aSlg4to--96">
          <mxGeometry x="99" width="99" height="47" as="geometry">
            <mxRectangle width="99" height="47" as="alternateBounds" />
          </mxGeometry>
        </mxCell>
        <mxCell id="BxIaYRE7VJ_8aSlg4to--97" value="15007" style="connectable=0;recursiveResize=0;strokeColor=#D4E1F5;fillColor=inherit;fontStyle=0;align=center;whiteSpace=wrap;html=1;strokeWidth=1;" vertex="1" parent="BxIaYRE7VJ_8aSlg4to--96">
          <mxGeometry x="198" width="99" height="47" as="geometry">
            <mxRectangle width="99" height="47" as="alternateBounds" />
          </mxGeometry>
        </mxCell>
      </root>
    </mxGraphModel>
  </diagram>
</mxfile>
